<svg width="95" height="35" viewBox="0 0 105 51" fill="none" xmlns="http://www.w3.org/2000/svg">
<path d="M45.4703 8.08767V36.8395C45.4703 41.8774 41.3739 45.9739 36.3359 45.9739C31.3234 45.9739 27.2015 41.8774 27.2015 36.8395C27.2015 31.827 31.3234 27.7305 36.3359 27.7305C38.4732 27.7305 40.3815 28.4684 41.9336 29.6897V14.5505L18.4996 21.2168V41.7502C18.4996 46.7881 14.3776 50.8846 9.36511 50.8846C4.32719 50.8846 0.230713 46.7881 0.230713 41.7502C0.230713 36.7377 4.32719 32.6412 9.36511 32.6412C11.477 32.6412 13.3853 33.3791 14.9374 34.575V12.0824C14.9374 8.34211 17.2019 5.44148 20.7896 4.47461L35.4963 0.454443C38.4732 -0.359767 40.9922 -0.0798828 42.7733 1.2941C44.5798 2.64263 45.4703 4.9326 45.4703 8.08767Z" fill="#D4D8E8"/>
<path d="M66.3405 16.7461H70.1348V28.4007C70.1348 29.7092 69.8222 30.8543 69.1971 31.8357C68.5779 32.8171 67.7104 33.5824 66.5946 34.1316C65.4788 34.6749 64.179 34.9465 62.6951 34.9465C61.2054 34.9465 59.9027 34.6749 58.7869 34.1316C57.6711 33.5824 56.8036 32.8171 56.1843 31.8357C55.5651 30.8543 55.2555 29.7092 55.2555 28.4007V16.7461H59.0498V28.0764C59.0498 28.7599 59.1987 29.3675 59.4967 29.8991C59.8005 30.4307 60.2269 30.8484 60.7761 31.1522C61.3252 31.456 61.9649 31.6079 62.6951 31.6079C63.4312 31.6079 64.0709 31.456 64.6142 31.1522C65.1633 30.8484 65.5869 30.4307 65.8848 29.8991C66.1886 29.3675 66.3405 28.7599 66.3405 28.0764V16.7461ZM72.573 19.8744V16.7461H87.3121V19.8744H81.8178V34.6924H78.0673V19.8744H72.573ZM90.6398 34.6924H86.5739L92.7692 16.7461H97.6589L103.845 34.6924H99.7795L95.2841 20.8471H95.1439L90.6398 34.6924ZM90.3857 27.6383H99.9898V30.6001H90.3857V27.6383Z" fill="#D4D8E8"/>
</svg>
